<?xml version="1.0" encoding="UTF-8" ?>
<!DOCTYPE svg PUBLIC "-//W3C//DTD SVG 1.1//EN" "http://www.w3.org/Graphics/SVG/1.1/DTD/svg11.dtd">
<svg width="80pt" height="83pt" viewBox="0 0 80 83" version="1.1" xmlns="http://www.w3.org/2000/svg">
<g id="#3c3c3cff">
<path fill="#3c3c3c" opacity="1.00" d=" M 0.15 0.00 L 15.16 0.00 C 15.78 2.00 15.89 4.12 16.08 6.19 C 31.99 6.21 47.90 6.20 63.81 6.20 C 64.00 4.12 64.13 2.02 64.68 0.00 L 79.65 0.00 C 79.74 0.04 79.91 0.11 80.00 0.14 L 80.00 15.45 C 75.18 17.03 69.96 16.39 65.00 16.06 C 63.46 14.51 64.20 12.07 63.86 10.12 C 56.50 10.16 49.14 10.10 41.78 10.16 C 46.58 24.95 54.83 38.29 61.76 52.12 C 62.72 53.96 60.40 55.20 59.47 56.46 C 55.88 59.71 53.61 64.09 52.32 68.71 C 53.75 69.23 55.78 68.78 56.79 70.16 C 57.39 74.41 57.27 78.78 56.45 83.00 L 23.72 83.00 C 22.69 78.80 22.80 74.39 23.31 70.13 C 24.32 68.76 26.38 69.25 27.79 68.71 C 26.62 65.07 25.24 61.35 22.55 58.54 C 21.05 56.69 19.01 55.24 17.96 53.05 C 24.79 38.81 33.51 25.32 38.31 10.16 C 30.92 10.10 23.54 10.16 16.15 10.12 C 15.78 12.08 16.55 14.56 14.94 16.07 C 9.99 16.48 4.86 16.85 0.00 15.56 L 0.00 0.36 C 0.04 0.27 0.11 0.09 0.15 0.00 M 3.94 3.94 C 3.94 6.71 3.94 9.49 3.94 12.27 C 6.61 12.27 9.28 12.26 11.94 12.27 C 11.94 9.49 11.94 6.71 11.94 3.93 C 9.27 3.94 6.61 3.93 3.94 3.94 M 68.06 4.06 C 68.06 6.80 68.06 9.53 68.06 12.27 C 70.72 12.26 73.39 12.27 76.06 12.27 C 76.06 9.53 76.06 6.80 76.06 4.07 C 73.39 4.07 70.72 4.07 68.06 4.06 M 42.13 21.66 C 42.02 28.25 42.01 34.84 42.12 41.43 C 44.80 42.88 47.20 45.59 46.48 48.88 C 45.88 53.87 39.00 56.19 35.55 52.51 C 31.90 49.28 33.59 43.18 37.91 41.49 C 38.10 34.94 37.97 28.38 37.98 21.82 C 33.21 32.22 27.99 42.40 22.40 52.38 C 26.94 56.94 30.58 62.52 31.71 68.94 C 37.29 68.91 42.87 68.98 48.45 68.88 C 49.47 62.48 53.16 56.93 57.67 52.43 C 52.25 42.30 46.87 32.13 42.13 21.66 M 39.39 45.33 C 35.94 46.06 37.71 51.70 40.95 50.23 C 44.06 49.34 42.40 44.24 39.39 45.33 M 27.12 72.87 C 27.12 74.87 27.12 76.87 27.12 78.87 C 35.79 78.87 44.45 78.87 53.12 78.86 C 53.12 76.87 53.12 74.87 53.12 72.87 C 44.45 72.86 35.78 72.87 27.12 72.87 Z" />
</g>
</svg>
