<?xml version="1.0" encoding="UTF-8" ?>
<!DOCTYPE svg PUBLIC "-//W3C//DTD SVG 1.1//EN" "http://www.w3.org/Graphics/SVG/1.1/DTD/svg11.dtd">
<svg width="79pt" height="76pt" viewBox="0 0 79 76" version="1.1" xmlns="http://www.w3.org/2000/svg">
<g id="#3c3c3cff">
<path fill="#3c3c3c" opacity="1.00" d=" M 0.15 0.00 L 78.84 0.00 C 78.88 0.04 78.96 0.11 79.00 0.15 L 79.00 75.84 C 78.96 75.88 78.89 75.96 78.85 76.00 L 0.16 76.00 C 0.12 75.96 0.04 75.89 0.00 75.85 L 0.00 0.16 C 0.04 0.12 0.11 0.04 0.15 0.00 M 4.18 4.20 C 4.18 6.42 4.18 8.64 4.17 10.87 C 27.72 10.87 51.28 10.87 74.83 10.87 C 74.82 8.64 74.82 6.42 74.82 4.20 C 51.27 4.20 27.73 4.20 4.18 4.20 M 4.17 15.07 C 4.18 33.98 4.17 52.89 4.18 71.80 C 27.73 71.80 51.28 71.80 74.82 71.80 C 74.83 52.89 74.82 33.98 74.83 15.07 C 51.28 15.07 27.72 15.06 4.17 15.07 Z" />
<path fill="#3c3c3c" opacity="1.00" d=" M 8.15 6.46 C 9.46 5.01 11.71 7.23 10.33 8.57 C 9.04 10.13 6.67 7.80 8.15 6.46 Z" />
<path fill="#3c3c3c" opacity="1.00" d=" M 12.45 6.45 C 13.90 5.30 15.89 7.14 14.65 8.63 C 13.12 9.90 11.26 7.96 12.45 6.45 Z" />
<path fill="#3c3c3c" opacity="1.00" d=" M 17.00 6.12 C 19.17 5.01 20.37 8.95 18.00 8.88 C 16.24 9.54 16.19 7.00 17.00 6.12 Z" />
<path fill="#3c3c3c" opacity="1.00" d=" M 40.19 32.07 C 41.41 30.41 44.14 32.25 43.14 34.05 C 42.14 38.88 40.69 43.60 39.61 48.40 C 39.00 50.28 38.98 52.69 36.98 53.68 C 34.12 52.93 35.47 49.91 35.90 47.95 C 37.45 42.69 38.28 37.21 40.19 32.07 Z" />
<path fill="#3c3c3c" opacity="1.00" d=" M 27.79 34.70 C 29.07 33.33 30.49 34.96 31.39 35.88 C 29.65 37.84 27.84 39.75 25.99 41.62 C 27.69 43.60 30.30 45.13 30.95 47.80 C 30.47 48.17 29.51 48.92 29.03 49.29 C 26.07 47.46 23.72 44.75 21.58 42.04 C 22.45 38.95 25.59 36.94 27.79 34.70 Z" />
<path fill="#3c3c3c" opacity="1.00" d=" M 49.19 34.11 C 51.48 34.03 52.74 36.34 54.32 37.64 C 55.40 39.03 57.38 40.15 57.39 42.07 C 55.28 44.83 52.85 47.44 49.94 49.36 C 48.75 48.98 48.15 48.20 48.12 47.01 C 49.43 44.96 51.33 43.39 53.05 41.70 C 51.44 40.05 49.70 38.51 48.36 36.63 C 47.97 35.59 48.24 34.76 49.19 34.11 Z" />
</g>
</svg>
