<?xml version="1.0" encoding="UTF-8" ?>
<!DOCTYPE svg PUBLIC "-//W3C//DTD SVG 1.1//EN" "http://www.w3.org/Graphics/SVG/1.1/DTD/svg11.dtd">
<svg width="79pt" height="91pt" viewBox="0 0 79 91" version="1.1" xmlns="http://www.w3.org/2000/svg">
<g id="#3c3c3cff">
<path fill="#3c3c3c" opacity="1.00" d=" M 39.24 0.00 L 41.55 0.00 C 44.30 0.77 45.74 3.20 46.73 5.68 C 49.42 5.76 52.19 5.48 54.79 6.27 C 56.98 7.10 57.74 9.54 58.89 11.37 C 65.57 11.84 72.45 10.47 79.00 12.18 L 79.00 90.81 C 78.95 90.86 78.86 90.95 78.81 91.00 L 0.26 91.00 C 0.19 90.99 0.06 90.98 0.00 90.97 L 0.00 12.30 C 1.56 11.67 3.22 11.31 4.91 11.36 C 10.64 11.36 16.37 11.46 22.10 11.37 C 23.22 9.51 24.00 7.05 26.24 6.25 C 28.83 5.49 31.57 5.76 34.23 5.68 C 35.19 3.24 36.64 0.91 39.24 0.00 M 36.65 9.59 C 33.81 10.13 30.90 9.66 28.05 10.03 C 25.78 11.08 27.07 14.17 26.63 16.13 C 35.85 16.14 45.08 16.14 54.30 16.13 C 53.91 14.16 55.11 11.26 53.02 10.03 C 50.15 9.67 47.22 10.13 44.37 9.60 C 42.26 8.78 42.30 6.09 41.35 4.35 C 37.97 3.41 39.46 8.90 36.65 9.59 M 4.17 15.54 C 4.18 39.31 4.18 63.09 4.17 86.86 C 27.72 86.87 51.27 86.87 74.83 86.87 C 74.82 63.09 74.82 39.31 74.83 15.54 C 69.44 15.53 64.06 15.53 58.68 15.53 C 58.44 17.28 58.73 20.51 56.01 20.22 C 45.68 20.31 35.34 20.31 25.01 20.22 C 22.25 20.55 22.55 17.30 22.33 15.53 C 16.28 15.54 10.23 15.53 4.17 15.54 Z" />
<path fill="#3c3c3c" opacity="1.00" d=" M 39.40 10.44 C 41.34 9.12 43.85 12.13 41.78 13.67 C 39.76 15.52 36.94 11.89 39.40 10.44 Z" />
<path fill="#3c3c3c" opacity="1.00" d=" M 21.89 34.24 C 23.84 32.30 25.63 30.14 27.99 28.67 C 29.68 29.37 29.95 30.36 28.80 31.64 C 26.71 34.03 24.46 36.34 21.90 38.23 C 19.87 37.32 18.33 35.59 17.07 33.80 C 17.32 30.39 20.61 32.83 21.89 34.24 Z" />
<path fill="#3c3c3c" opacity="1.00" d=" M 35.04 34.88 C 33.64 34.32 34.29 32.91 34.64 31.87 C 41.48 31.99 48.32 31.93 55.15 31.92 C 55.44 32.48 56.02 33.61 56.32 34.18 C 53.06 35.58 49.47 34.97 46.04 35.07 C 42.37 34.98 38.69 35.31 35.04 34.88 Z" />
<path fill="#3c3c3c" opacity="1.00" d=" M 21.88 47.59 C 24.12 45.86 25.67 42.38 28.74 42.24 C 28.98 42.66 29.44 43.50 29.68 43.93 C 27.39 46.84 24.56 49.25 21.92 51.83 C 20.13 50.38 18.20 48.97 16.96 46.98 C 17.71 43.72 20.58 46.21 21.88 47.59 Z" />
<path fill="#3c3c3c" opacity="1.00" d=" M 35.31 45.44 C 41.50 45.05 47.75 45.28 53.95 45.32 C 55.72 44.90 56.74 47.51 54.96 48.23 C 49.66 48.66 44.33 48.27 39.02 48.43 C 37.11 48.32 33.51 49.01 34.03 45.96 C 34.35 45.83 34.99 45.57 35.31 45.44 Z" />
<path fill="#3c3c3c" opacity="1.00" d=" M 21.81 61.00 C 23.79 58.99 25.70 56.87 28.03 55.26 C 28.47 55.69 29.36 56.55 29.80 56.98 C 27.59 60.09 24.62 62.53 21.90 65.16 C 20.39 63.95 18.84 62.76 17.60 61.27 C 16.33 60.22 17.99 58.87 18.74 58.16 C 19.74 59.12 20.76 60.08 21.81 61.00 Z" />
<path fill="#3c3c3c" opacity="1.00" d=" M 34.31 59.27 C 35.57 58.17 37.45 58.77 38.98 58.57 C 44.00 58.69 49.04 58.44 54.06 58.68 C 55.96 58.19 56.75 61.41 54.73 61.56 C 48.53 61.94 42.28 61.73 36.06 61.67 C 34.70 62.01 33.47 60.47 34.31 59.27 Z" />
<path fill="#3c3c3c" opacity="1.00" d=" M 21.89 74.26 C 23.85 72.36 25.58 70.12 27.99 68.75 C 28.37 69.08 29.12 69.72 29.50 70.04 C 28.20 73.59 24.38 75.74 21.86 78.52 C 20.15 77.11 18.34 75.74 17.09 73.88 C 17.20 70.41 20.66 72.79 21.89 74.26 Z" />
<path fill="#3c3c3c" opacity="1.00" d=" M 34.47 72.55 C 35.61 71.45 37.54 72.15 38.99 71.90 C 44.32 72.08 49.68 71.63 54.99 72.14 C 56.81 72.69 55.69 75.34 54.05 75.00 C 48.01 75.14 41.96 75.13 35.92 75.00 C 34.56 75.19 33.29 73.65 34.47 72.55 Z" />
</g>
</svg>
