<?xml version="1.0" encoding="UTF-8" ?>
<!DOCTYPE svg PUBLIC "-//W3C//DTD SVG 1.1//EN" "http://www.w3.org/Graphics/SVG/1.1/DTD/svg11.dtd">
<svg width="65pt" height="69pt" viewBox="0 0 65 69" version="1.1" xmlns="http://www.w3.org/2000/svg">
<g id="#fdfdfdfd">
<path fill="#fdfdfd" opacity="1.00" d=" M 29.01 0.00 L 36.01 0.00 C 35.71 0.98 35.38 1.95 35.02 2.91 L 34.80 1.41 L 30.06 1.49 L 29.99 2.94 C 29.63 1.97 29.30 0.99 29.01 0.00 Z" />
<path fill="#fdfdfd" opacity="1.00" d=" M 0.38 26.74 C 2.90 13.36 14.14 2.33 27.61 0.20 C 27.64 0.60 27.68 1.39 27.70 1.78 C 14.42 3.87 2.72 15.36 1.95 29.03 C 1.43 28.26 0.90 27.50 0.38 26.74 Z" />
<path fill="#fdfdfd" opacity="1.00" d=" M 37.30 1.78 C 37.32 1.38 37.36 0.59 37.38 0.19 C 50.86 2.33 62.09 13.36 64.62 26.74 C 64.10 27.51 63.57 28.27 63.05 29.03 C 62.29 15.37 50.59 3.87 37.30 1.78 Z" />
<path fill="#fdfdfd" opacity="1.00" d=" M 10.81 55.28 C 18.20 41.08 25.42 26.79 32.89 12.64 C 40.16 26.69 47.34 40.79 54.68 54.80 C 60.87 48.16 64.28 39.02 63.51 29.92 C 63.88 29.64 64.63 29.08 65.00 28.81 L 65.00 32.37 C 65.35 41.27 61.43 49.89 55.28 56.18 C 56.25 57.95 57.19 59.74 58.14 61.52 C 59.76 62.27 61.92 62.89 62.28 64.94 C 62.63 66.79 61.11 67.92 59.93 69.00 L 58.26 69.00 C 56.88 68.39 55.73 67.13 54.16 67.06 C 48.25 66.87 42.33 67.11 36.42 66.94 C 35.57 67.65 34.71 68.33 33.84 69.00 L 32.14 69.00 C 31.12 68.35 30.14 67.64 29.16 66.94 C 22.24 67.05 15.32 66.98 8.40 67.01 C 7.56 67.69 6.71 68.35 5.85 69.00 L 4.09 69.00 C 2.43 68.15 0.74 66.55 1.49 64.50 C 2.15 61.96 5.08 61.83 7.19 62.32 C 8.15 60.43 9.15 58.57 10.16 56.71 C 4.87 51.40 1.32 44.54 0.03 37.15 C 0.80 37.41 2.32 37.92 3.09 38.17 L 1.75 38.09 C 3.16 44.53 6.19 50.55 10.81 55.28 M 11.93 56.25 C 16.79 60.36 22.78 63.24 29.17 63.80 C 30.48 63.09 31.72 62.27 33.03 61.55 C 34.11 62.27 35.18 63.02 36.23 63.80 C 42.64 63.00 48.76 60.19 53.50 55.78 C 46.56 42.49 39.67 29.17 32.88 15.79 C 25.87 29.26 19.05 42.84 11.93 56.25 M 11.32 57.60 C 10.15 60.14 8.25 62.45 8.05 65.33 C 14.31 65.39 20.58 65.48 26.85 65.35 C 21.29 63.67 15.69 61.60 11.32 57.60 M 37.70 65.33 C 43.36 65.52 49.04 65.40 54.70 65.33 C 55.51 64.36 56.16 63.27 56.89 62.24 C 55.95 60.55 55.03 58.86 54.15 57.14 C 49.66 61.57 43.66 63.74 37.70 65.33 Z" />
<path fill="#fdfdfd" opacity="1.00" d=" M 0.00 29.05 C 0.38 29.21 1.13 29.54 1.51 29.70 C 1.47 31.91 1.48 34.12 1.56 36.32 C 1.17 36.47 0.39 36.76 0.00 36.91 L 0.00 29.05 Z" />
</g>
</svg>
