<?xml version="1.0" encoding="UTF-8" ?>
<!DOCTYPE svg PUBLIC "-//W3C//DTD SVG 1.1//EN" "http://www.w3.org/Graphics/SVG/1.1/DTD/svg11.dtd">
<svg width="23pt" height="37pt" viewBox="0 0 23 37" version="1.1" xmlns="http://www.w3.org/2000/svg">
<g id="#f6f6f6f6">
<path fill="#f6f6f6" opacity="0.96" d=" M 9.61 0.00 L 13.24 0.00 C 18.34 0.89 22.50 5.13 23.00 10.34 L 23.00 26.61 C 22.45 31.84 18.29 36.08 13.15 37.00 L 10.04 37.00 C 4.84 36.21 0.58 31.95 0.00 26.69 L 0.00 10.74 C 0.26 5.41 4.46 1.01 9.61 0.00 M 9.22 2.11 C 5.22 3.05 2.02 6.82 1.98 10.97 C 1.83 15.66 1.90 20.34 1.94 25.03 C 1.88 27.70 2.79 30.42 4.76 32.29 C 8.47 36.15 15.37 35.88 18.75 31.73 C 21.47 28.85 21.09 24.65 21.10 21.00 C 20.99 17.08 21.36 13.12 20.80 9.21 C 19.77 4.17 14.19 0.80 9.22 2.11 Z" />
<path fill="#f6f6f6" opacity="0.96" d=" M 10.16 10.18 C 11.93 8.80 14.13 10.92 12.73 12.70 C 10.98 13.95 8.99 11.95 10.16 10.18 Z" />
</g>
</svg>
